
<svg  viewBox="0 0 111 37" version="1.1" xmlns="http://www.w3.org/2000/svg" xmlns:xlink="http://www.w3.org/1999/xlink">
    <g id="Page-1" stroke="none" stroke-width="1" fill="none" fill-rule="evenodd" fill-opacity="0.1">
        <g id="wptricks_new_brand__hover" fill="#E03358">
            <path d="M0.214377682,12.9341202 L7.07446352,12.9341202 L7.07446352,16.0783262 L7.16974249,16.0783262 C7.38412017,15.6257511 7.71759657,15.1969957 8.12253219,14.7444206 C8.52746781,14.2918455 9.0276824,13.9107296 9.59935622,13.5534335 C10.17103,13.1961373 10.8141631,12.9103004 11.5525751,12.6959227 C12.2909871,12.4815451 13.0770386,12.3624464 13.9345494,12.3624464 C15.5542918,12.3624464 16.9834764,12.6959227 18.2459227,13.3628755 C19.5083691,14.0298283 20.4373391,15.077897 21.0804721,16.5070815 C21.9141631,15.0064378 22.9145923,13.9583691 24.0817597,13.3152361 C25.248927,12.672103 26.7019313,12.3624464 28.4169528,12.3624464 C29.9652361,12.3624464 31.2753219,12.6244635 32.3472103,13.1484979 C33.4190987,13.6725322 34.2527897,14.3871245 34.872103,15.2922747 C35.4914163,16.1974249 35.9439914,17.2693133 36.2060086,18.4841202 C36.4680258,19.698927 36.6109442,21.0090129 36.6109442,22.4143777 L36.6109442,36.0869099 L29.4650215,36.0869099 L29.4650215,22.6049356 C29.4650215,21.5330472 29.226824,20.6040773 28.7742489,19.8180258 C28.3216738,19.0319742 27.4879828,18.6508584 26.3208155,18.6508584 C25.4871245,18.6508584 24.7963519,18.7937768 24.2484979,19.055794 C23.7006438,19.3178112 23.2480687,19.698927 22.9145923,20.1753219 C22.5811159,20.6517167 22.3429185,21.1995708 22.2,21.8427039 C22.0570815,22.4858369 21.9856223,23.1527897 21.9856223,23.8435622 L21.9856223,36.0869099 L14.8396996,36.0869099 L14.8396996,23.8435622 C14.8396996,23.4386266 14.8158798,22.9145923 14.7920601,22.3190987 C14.7682403,21.7236052 14.6491416,21.1519313 14.4585837,20.6040773 C14.2680258,20.0562232 13.9583691,19.6036481 13.5296137,19.2225322 C13.1008584,18.8414163 12.4815451,18.6508584 11.6478541,18.6508584 C10.7188841,18.6508584 9.9804721,18.8175966 9.40879828,19.151073 C8.83712446,19.4845494 8.4083691,19.9371245 8.09871245,20.4849785 C7.78905579,21.0328326 7.59849785,21.6759657 7.50321888,22.3667382 C7.40793991,23.0575107 7.36030043,23.7959227 7.36030043,24.5581545 L7.36030043,36.0869099 L0.214377682,36.0869099 L0.214377682,12.9341202 Z" id="Shape"></path>
            <path d="M54.761588,33.1809013 L54.666309,33.1809013 C53.8802575,34.4195279 52.8083691,35.3008584 51.4982833,35.8487124 C50.1881974,36.3965665 48.7828326,36.6585837 47.3298283,36.6585837 C46.2579399,36.6585837 45.2098712,36.5156652 44.2094421,36.2060086 C43.2090129,35.8963519 42.3276824,35.4437768 41.5654506,34.8482833 C40.8032189,34.2527897 40.2077253,33.4905579 39.7551502,32.6092275 C39.3025751,31.727897 39.0881974,30.6798283 39.0881974,29.5126609 C39.0881974,28.1787554 39.3263948,27.0592275 39.8266094,26.1302575 C40.326824,25.2012876 40.9937768,24.4390558 41.8274678,23.8435622 C42.6611588,23.2480687 43.6377682,22.7716738 44.7096567,22.4381974 C45.7815451,22.104721 46.901073,21.8665236 48.0682403,21.6997854 C49.2354077,21.5330472 50.3787554,21.4377682 51.5459227,21.4139485 C52.7130901,21.3901288 53.7849785,21.366309 54.761588,21.366309 C54.761588,20.1038627 54.3090129,19.0796137 53.4038627,18.3412017 C52.4987124,17.6027897 51.426824,17.2216738 50.1881974,17.2216738 C49.02103,17.2216738 47.9491416,17.4598712 46.9725322,17.9600858 C45.9959227,18.4603004 45.138412,19.1272532 44.3761803,19.9847639 L40.5650215,16.0783262 C41.898927,14.8396996 43.4472103,13.9107296 45.233691,13.2914163 C47.0201717,12.672103 48.8542918,12.3624464 50.7598712,12.3624464 C52.8560086,12.3624464 54.57103,12.6244635 55.9287554,13.1484979 C57.2864807,13.6725322 58.3583691,14.4347639 59.1682403,15.4590129 C59.9781116,16.4832618 60.5497854,17.7218884 60.8594421,19.1987124 C61.1690987,20.6755365 61.3358369,22.3905579 61.3358369,24.3199571 L61.3358369,36.0869099 L54.761588,36.0869099 L54.761588,33.1809013 Z M52.998927,25.9396996 C52.451073,25.9396996 51.7841202,25.9635193 50.9742489,26.0111588 C50.1643777,26.0587983 49.3783262,26.2017167 48.6399142,26.4160944 C47.9015021,26.6304721 47.2583691,26.9639485 46.7343348,27.4165236 C46.2103004,27.8690987 45.9482833,28.488412 45.9482833,29.2744635 C45.9482833,30.1319742 46.3055794,30.7751073 47.0439914,31.1800429 C47.7824034,31.5849785 48.5446352,31.7993562 49.3306867,31.7993562 C50.0214592,31.7993562 50.7122318,31.7040773 51.3553648,31.5135193 C51.9984979,31.3229614 52.5939914,31.0609442 53.094206,30.7036481 C53.5944206,30.3463519 53.9993562,29.9175966 54.3090129,29.3697425 C54.6186695,28.8218884 54.761588,28.2025751 54.761588,27.4641631 L54.761588,25.9396996 L52.998927,25.9396996 Z" id="Shape" fill-rule="nonzero"></path>
            <polygon id="Shape" points="64.6229614 0.0714592275 71.7688841 0.0714592275 71.7688841 22.0809013 79.6770386 12.9341202 88.4427039 12.9341202 79.2482833 23.3671674 88.6809013 36.0869099 79.6770386 36.0869099 71.8641631 24.3675966 71.7688841 24.3675966 71.7688841 36.0869099 64.6229614 36.0869099"></polygon>
            <path d="M110.833262,29.0600858 C110.11867,30.7751073 109.046781,32.2519313 107.569957,33.4905579 C106.093133,34.7291845 104.473391,35.5866953 102.66309,36.1107296 C100.948069,36.5871245 99.256867,36.7776824 97.589485,36.6347639 C95.922103,36.5156652 94.3738197,36.0869099 92.9922747,35.3723176 C91.5869099,34.6577253 90.372103,33.6811159 89.3240343,32.4186695 C88.2759657,31.1562232 87.5137339,29.6555794 87.0135193,27.8690987 C86.5133047,26.1064378 86.394206,24.3914163 86.6324034,22.7716738 C86.8706009,21.1519313 87.3946352,19.6751073 88.2283262,18.3412017 C89.0620172,17.0072961 90.1577253,15.8401288 91.5154506,14.8635193 C92.873176,13.8869099 94.4214592,13.1723176 96.1126609,12.672103 C97.7085837,12.2195279 99.2330472,12.1004292 100.686052,12.2909871 C102.139056,12.4815451 103.472961,12.9579399 104.640129,13.7201717 C105.831116,14.4824034 106.879185,15.5304721 107.760515,16.8167382 C108.641845,18.126824 109.356438,19.6512876 109.856652,21.4377682 L110.452146,23.6053648 L94.4929185,28.0834764 C95.1360515,29.322103 96.017382,30.2034335 97.1607296,30.7274678 C98.3040773,31.2515021 99.5427039,31.3229614 100.876609,30.9418455 C101.996137,30.6321888 102.901288,30.1081545 103.520601,29.3697425 C104.163734,28.6551502 104.663948,27.7976395 105.021245,26.8448498 L110.833262,29.0600858 Z M102.258155,20.8660944 C101.972318,19.698927 101.305365,18.8175966 100.281116,18.1982833 C99.256867,17.6027897 98.1135193,17.4598712 96.851073,17.8171674 C96.0888412,18.0315451 95.4457082,18.3412017 94.9454936,18.7461373 C94.4214592,19.151073 94.0165236,19.6036481 93.706867,20.1038627 C93.3972103,20.6040773 93.2066524,21.1281116 93.1113734,21.6997854 C93.0160944,22.2714592 93.0399142,22.843133 93.1590129,23.3909871 L102.258155,20.8660944 Z" id="Shape" fill-rule="nonzero"></path>
        </g>
    </g>
</svg>